<?xml version="1.0" encoding="UTF-8"?>
<!DOCTYPE svg PUBLIC "-//W3C//DTD SVG 1.1//EN" "http://www.w3.org/Graphics/SVG/1.1/DTD/svg11.dtd">
<svg xmlns="http://www.w3.org/2000/svg" version="1.1" width="187px" height="61px" style="shape-rendering:geometricPrecision; text-rendering:geometricPrecision; image-rendering:optimizeQuality; fill-rule:evenodd; clip-rule:evenodd" xmlns:xlink="http://www.w3.org/1999/xlink">
<g><path style="opacity:0.945" fill="#767676" d="M 24.5,-0.5 C 25.8333,-0.5 27.1667,-0.5 28.5,-0.5C 36.5194,4.60005 44.6861,9.60005 53,14.5C 53.6667,24.8333 53.6667,35.1667 53,45.5C 44.6861,50.3999 36.5194,55.3999 28.5,60.5C 27.1667,60.5 25.8333,60.5 24.5,60.5C 19.1667,57.1667 13.8333,53.8333 8.5,50.5C 11.1887,46.441 12.8554,46.7743 13.5,51.5C 16.491,51.8337 18.8243,50.8337 20.5,48.5C 35.5411,47.9646 42.7077,40.298 42,25.5C 37.5151,15.6415 30.0151,11.3082 19.5,12.5C 17.9952,9.95003 15.9952,7.95003 13.5,6.5C 16.9974,3.91696 20.6641,1.58363 24.5,-0.5 Z"/></g>
<g><path style="opacity:0.987" fill="#787878" d="M 13.5,6.5 C 15.9952,7.95003 17.9952,9.95003 19.5,12.5C 19.2627,13.791 19.596,14.791 20.5,15.5C 20.7352,16.0967 21.2352,16.4301 22,16.5C 23.3932,15.3849 24.8932,14.8849 26.5,15C 27.8333,16.3333 27.8333,17.6667 26.5,19C 22.2291,20.0083 18.2291,19.5083 14.5,17.5C 10.5,19.1667 10.5,20.8333 14.5,22.5C 16.0709,21.6906 17.7376,21.3573 19.5,21.5C 19.5,23.1667 19.5,24.8333 19.5,26.5C 22.5184,26.3354 25.5184,26.502 28.5,27C 31.288,29.7632 30.9547,32.0966 27.5,34C 24.208,34.9357 21.208,34.4357 18.5,32.5C 16.0197,33.4154 15.3531,34.9154 16.5,37C 20.9166,37.0721 25.2499,36.4054 29.5,35C 33.3131,26.9552 30.6465,23.4552 21.5,24.5C 21.5,23.1667 21.5,21.8333 21.5,20.5C 31.5567,20.0516 35.7234,24.7183 34,34.5C 32.4571,36.3783 30.6238,37.8783 28.5,39C 23.8333,39.6667 19.1667,39.6667 14.5,39C 12.3153,37.0709 10.6486,37.5709 9.5,40.5C 10.5739,42.5339 11.9073,42.8672 13.5,41.5C 18.1667,41.5 22.8333,41.5 27.5,41.5C 27.1173,45.9385 25.284,46.6052 22,43.5C 21.2352,43.5699 20.7352,43.9033 20.5,44.5C 19.3143,45.7054 19.3143,47.0387 20.5,48.5C 18.8243,50.8337 16.491,51.8337 13.5,51.5C 12.8554,46.7743 11.1887,46.441 8.5,50.5C 5.6484,48.9091 2.6484,47.5758 -0.5,46.5C -0.5,35.5 -0.5,24.5 -0.5,13.5C 4.14987,11.1961 8.81654,8.86273 13.5,6.5 Z"/></g>
<g><path style="opacity:1" fill="#f0f0f0" d="M 20.5,48.5 C 19.3143,47.0387 19.3143,45.7054 20.5,44.5C 20.7352,43.9033 21.2352,43.5699 22,43.5C 25.284,46.6052 27.1173,45.9385 27.5,41.5C 22.8333,41.5 18.1667,41.5 13.5,41.5C 11.9073,42.8672 10.5739,42.5339 9.5,40.5C 10.6486,37.5709 12.3153,37.0709 14.5,39C 19.1667,39.6667 23.8333,39.6667 28.5,39C 30.6238,37.8783 32.4571,36.3783 34,34.5C 35.7234,24.7183 31.5567,20.0516 21.5,20.5C 21.5,21.8333 21.5,23.1667 21.5,24.5C 30.6465,23.4552 33.3131,26.9552 29.5,35C 25.2499,36.4054 20.9166,37.0721 16.5,37C 15.3531,34.9154 16.0197,33.4154 18.5,32.5C 21.208,34.4357 24.208,34.9357 27.5,34C 30.9547,32.0966 31.288,29.7632 28.5,27C 25.5184,26.502 22.5184,26.3354 19.5,26.5C 19.5,24.8333 19.5,23.1667 19.5,21.5C 17.7376,21.3573 16.0709,21.6906 14.5,22.5C 10.5,20.8333 10.5,19.1667 14.5,17.5C 18.2291,19.5083 22.2291,20.0083 26.5,19C 27.8333,17.6667 27.8333,16.3333 26.5,15C 24.8932,14.8849 23.3932,15.3849 22,16.5C 21.2352,16.4301 20.7352,16.0967 20.5,15.5C 19.596,14.791 19.2627,13.791 19.5,12.5C 30.0151,11.3082 37.5151,15.6415 42,25.5C 42.7077,40.298 35.5411,47.9646 20.5,48.5 Z"/></g>
<g><path style="opacity:1" fill="#818181" d="M 20.5,15.5 C 20.6395,13.663 21.3061,13.3296 22.5,14.5C 22.0431,15.2975 21.3764,15.6309 20.5,15.5 Z"/></g>
<g><path style="opacity:0.738" fill="#fefffe" d="M 95.5,22.5 C 96.1667,20.5 96.8333,18.5 97.5,16.5C 99.1667,16.5 100.833,16.5 102.5,16.5C 102.5,17.5 102.5,18.5 102.5,19.5C 103.5,19.5 104.5,19.5 105.5,19.5C 105.5,20.8333 105.5,22.1667 105.5,23.5C 104.5,23.5 103.5,23.5 102.5,23.5C 102.5,25.5 102.5,27.5 102.5,29.5C 104.433,29.2714 106.1,28.4381 107.5,27C 106.271,20.0308 109.271,15.8642 116.5,14.5C 124.634,16.1056 127.467,20.7723 125,28.5C 120.989,33.5449 116.155,34.5449 110.5,31.5C 109.5,32.1667 108.5,32.8333 107.5,33.5C 105.657,33.2448 103.657,33.0781 101.5,33C 100.069,32.5348 98.9025,31.7014 98,30.5C 97.6667,28.1667 97.3333,25.8333 97,23.5C 96.6174,22.944 96.1174,22.6107 95.5,22.5 Z M 113.5,19.5 C 120.486,19.0183 122.486,21.8517 119.5,28C 112.215,28.9343 110.215,26.1009 113.5,19.5 Z"/></g>
<g><path style="opacity:0.738" fill="#fefffe" d="M 166.5,14.5 C 168.167,14.5 169.833,14.5 171.5,14.5C 171.5,20.5 171.5,26.5 171.5,32.5C 169.833,32.5 168.167,32.5 166.5,32.5C 166.5,26.5 166.5,20.5 166.5,14.5 Z"/></g>
<g><path style="opacity:0.784" fill="#fefffe" d="M 95.5,22.5 C 95.9741,31.7063 91.9741,34.7063 83.5,31.5C 82.081,29.6641 80.9143,27.6641 80,25.5C 79.3102,28.196 77.8102,30.3626 75.5,32C 71.1794,32.499 66.8461,32.6657 62.5,32.5C 62.5,26.8333 62.5,21.1667 62.5,15.5C 66.5138,15.3345 70.5138,15.5012 74.5,16C 78.1655,17.668 80.3322,20.5013 81,24.5C 84.8732,17.495 89.7065,16.8283 95.5,22.5 Z M 67.5,19.5 C 74.6095,18.9037 76.6095,21.7371 73.5,28C 71.5273,28.4955 69.5273,28.6621 67.5,28.5C 67.5,25.5 67.5,22.5 67.5,19.5 Z M 87.5,22.5 C 89.7224,22.5587 90.7224,23.7253 90.5,26C 88.8756,30.6157 87.2089,30.6157 85.5,26C 85.9783,24.6974 86.645,23.5307 87.5,22.5 Z"/></g>
<g><path style="opacity:0.735" fill="#fefffe" d="M 134.5,18.5 C 136.256,19.5521 136.923,21.2188 136.5,23.5C 135.178,23.33 134.011,23.6634 133,24.5C 132.503,27.146 132.336,29.8127 132.5,32.5C 130.833,32.5 129.167,32.5 127.5,32.5C 127.5,28.1667 127.5,23.8333 127.5,19.5C 130.059,19.8016 132.393,19.4682 134.5,18.5 Z"/></g>
<g><path style="opacity:0.74" fill="#fefffe" d="M 141.5,18.5 C 144.505,18.253 147.005,19.253 149,21.5C 150.237,25.0601 150.737,28.7267 150.5,32.5C 147.603,32.3187 144.77,32.6521 142,33.5C 137.908,32.6252 136.408,30.2918 137.5,26.5C 139.882,24.9293 142.549,24.096 145.5,24C 143.106,23.0159 140.606,22.5159 138,22.5C 137.333,21.8333 137.333,21.1667 138,20.5C 139.302,19.9152 140.469,19.2485 141.5,18.5 Z M 141.5,27.5 C 145.588,27.2184 146.088,27.8851 143,29.5C 141.97,29.1639 141.47,28.4972 141.5,27.5 Z"/></g>
<g><path style="opacity:0.722" fill="#fefffe" d="M 157.5,18.5 C 160.89,18.5113 163.556,19.8446 165.5,22.5C 163.389,25.0443 161.222,25.0443 159,22.5C 155.667,24.8333 155.667,27.1667 159,29.5C 161.222,26.9557 163.389,26.9557 165.5,29.5C 162.534,33.3206 158.867,34.1539 154.5,32C 149.966,26.1635 150.966,21.6635 157.5,18.5 Z"/></g>
<g><path style="opacity:0.764" fill="#fefffe" d="M 186.5,22.5 C 186.5,24.1667 186.5,25.8333 186.5,27.5C 183.482,27.3354 180.482,27.502 177.5,28C 179.243,29.6352 181.077,29.8019 183,28.5C 184.28,28.6135 185.113,29.2801 185.5,30.5C 182.093,34.228 178.426,34.3947 174.5,31C 170.99,24.5186 172.823,20.3519 180,18.5C 182.634,19.2259 184.801,20.5593 186.5,22.5 Z M 178.5,22.5 C 180.103,22.3118 181.437,22.8118 182.5,24C 180.833,24.6667 179.167,24.6667 177.5,24C 178.056,23.6174 178.389,23.1174 178.5,22.5 Z"/></g>
<g><path style="opacity:1" fill="#7b7b7b" d="M 29.5,15.5 C 39.9316,20.2901 42.7649,27.9568 38,38.5C 35.9327,41.07 33.4327,43.07 30.5,44.5C 30.1667,43.8333 29.8333,43.1667 29.5,42.5C 31.1207,40.3761 32.954,38.3761 35,36.5C 38.2125,29.2838 36.5458,23.6171 30,19.5C 29.51,18.2068 29.3433,16.8734 29.5,15.5 Z"/></g>
<g><path style="opacity:1" fill="#7d7d7d" d="M 17.5,34.5 C 20.0009,34.5109 20.1676,35.1776 18,36.5C 17.5357,35.9056 17.369,35.2389 17.5,34.5 Z"/></g>
<g><path style="opacity:0.445" fill="#fefffe" d="M 95.5,40.5 C 94.1667,41.5 94.1667,42.5 95.5,43.5C 95.1788,45.0481 94.1788,45.7148 92.5,45.5C 92.5489,40.4612 91.8823,40.2945 90.5,45C 88.5665,45.7826 87.0665,45.2826 86,43.5C 83.8646,45.2785 81.3646,45.9452 78.5,45.5C 78.5,42.8333 78.5,40.1667 78.5,37.5C 82.1816,36.7253 84.6816,38.0586 86,41.5C 88.4874,40.2873 90.9874,39.2873 93.5,38.5C 94.5223,38.8555 95.189,39.5222 95.5,40.5 Z M 80.5,39.5 C 82.9118,39.6941 83.9118,41.0274 83.5,43.5C 82.5,43.5 81.5,43.5 80.5,43.5C 80.5,42.1667 80.5,40.8333 80.5,39.5 Z M 87.5,41.5 C 89.337,41.6395 89.6704,42.3061 88.5,43.5C 87.7025,43.0431 87.3691,42.3764 87.5,41.5 Z"/></g>
<g><path style="opacity:0.401" fill="#fefffe" d="M 95.5,43.5 C 95.5,42.5 95.5,41.5 95.5,40.5C 98.6743,36.3233 101.508,36.6566 104,41.5C 104.388,40.572 105.055,39.9054 106,39.5C 107.44,40.6071 108.94,40.6071 110.5,39.5C 111.647,39.8178 112.481,40.4844 113,41.5C 114.396,39.4732 116.062,39.1398 118,40.5C 119.377,36.7351 120.377,37.0684 121,41.5C 123.574,38.7406 125.74,39.074 127.5,42.5C 125.729,45.8844 123.562,46.2178 121,43.5C 118.333,46.1667 115.667,46.1667 113,43.5C 111.599,45.1922 109.766,45.8588 107.5,45.5C 107.906,43.8908 107.906,42.5575 107.5,41.5C 106.571,42.6888 106.238,44.0222 106.5,45.5C 104.29,44.4172 102.123,44.4172 100,45.5C 98.167,45.4814 96.667,44.8148 95.5,43.5 Z M 98.5,39.5 C 100.912,39.6941 101.912,41.0274 101.5,43.5C 100.167,43.5 98.8333,43.5 97.5,43.5C 97.4326,42.0413 97.7659,40.7079 98.5,39.5 Z M 115.5,41.5 C 116.606,42.1494 117.606,42.4827 118.5,42.5C 116.948,43.7979 115.948,43.4646 115.5,41.5 Z"/></g>
<g><path style="opacity:0.444" fill="#fefffe" d="M 129.5,37.5 C 131.752,37.9156 133.252,39.249 134,41.5C 134.219,40.062 134.719,38.7287 135.5,37.5C 136.833,40.1667 136.833,42.8333 135.5,45.5C 134.108,44.3947 132.941,43.0614 132,41.5C 131.781,42.938 131.281,44.2713 130.5,45.5C 129.52,42.9135 129.187,40.2469 129.5,37.5 Z"/></g>
<g><path style="opacity:0.414" fill="#fefffe" d="M 142.5,40.5 C 142.811,39.5222 143.478,38.8555 144.5,38.5C 145.736,39.2458 147.07,39.5792 148.5,39.5C 148.833,43.5 149.167,43.5 149.5,39.5C 150.5,39.5 151.5,39.5 152.5,39.5C 152.596,43.3107 153.262,43.3107 154.5,39.5C 155.711,40.3898 157.045,40.3898 158.5,39.5C 159.647,39.8178 160.481,40.4844 161,41.5C 162.707,40.0564 164.54,38.723 166.5,37.5C 167.251,38.376 167.751,39.376 168,40.5C 170.391,39.3975 170.891,40.0642 169.5,42.5C 170.04,43.7481 170.707,44.9148 171.5,46C 169.591,46.4479 168.424,45.6145 168,43.5C 167.692,44.3081 167.192,44.9747 166.5,45.5C 165.58,39.0538 164.246,39.0538 162.5,45.5C 161.808,44.9747 161.308,44.3081 161,43.5C 159,46.1667 157,46.1667 155,43.5C 153.667,46.1667 152.333,46.1667 151,43.5C 150.692,44.3081 150.192,44.9747 149.5,45.5C 148.108,44.3947 146.941,43.0614 146,41.5C 145.508,42.549 145.674,43.549 146.5,44.5C 145.675,45.3857 144.675,45.719 143.5,45.5C 143.784,43.5853 143.451,41.9187 142.5,40.5 Z M 157.5,41.5 C 158.376,41.3691 159.043,41.7025 159.5,42.5C 157.192,43.8734 156.525,43.5401 157.5,41.5 Z"/></g>
<g><path style="opacity:0.425" fill="#fefffe" d="M 142.5,40.5 C 142.5,42.1667 142.5,43.8333 142.5,45.5C 140.833,45.5 139.167,45.5 137.5,45.5C 136.415,40.58 138.082,38.9134 142.5,40.5 Z"/></g>
<g><path style="opacity:1" fill="#828282" d="M 13.5,41.5 C 11.663,41.3605 11.3296,40.6939 12.5,39.5C 13.2975,39.9569 13.6309,40.6236 13.5,41.5 Z"/></g>
<g><path style="opacity:1" fill="#7b7b7b" d="M 20.5,44.5 C 22.337,44.6395 22.6704,45.3061 21.5,46.5C 20.7025,46.0431 20.3691,45.3764 20.5,44.5 Z"/></g>
</svg>
