<?xml version="1.0" encoding="UTF-8"?>
<!DOCTYPE svg PUBLIC "-//W3C//DTD SVG 1.1//EN" "http://www.w3.org/Graphics/SVG/1.1/DTD/svg11.dtd">
<svg xmlns="http://www.w3.org/2000/svg" version="1.1" width="2779px" height="908px" style="shape-rendering:geometricPrecision; text-rendering:geometricPrecision; image-rendering:optimizeQuality; fill-rule:evenodd; clip-rule:evenodd" xmlns:xlink="http://www.w3.org/1999/xlink">
<g><path style="opacity:0.997" fill="#e2017a" d="M 390.5,-0.5 C 393.5,-0.5 396.5,-0.5 399.5,-0.5C 529.405,74.4594 659.405,149.459 789.5,224.5C 790.165,286.46 790.498,348.46 790.5,410.5C 790.343,501.215 790.01,591.882 789.5,682.5C 659.405,757.541 529.405,832.541 399.5,907.5C 396.5,907.5 393.5,907.5 390.5,907.5C 260.366,831.929 130.032,756.596 -0.5,681.5C -0.5,679.5 -0.5,677.5 -0.5,675.5C 0.833333,640.833 0.833333,606.167 -0.5,571.5C -0.5,565.5 -0.5,559.5 -0.5,553.5C 0.833333,471.167 0.833333,388.833 -0.5,306.5C -0.5,302.5 -0.5,298.5 -0.5,294.5C 0.833333,272.5 0.833333,250.5 -0.5,228.5C -0.5,227.5 -0.5,226.5 -0.5,225.5C 130.064,150.39 260.398,75.0571 390.5,-0.5 Z"/></g>
<g><path style="opacity:1" fill="#fefdfe" d="M 322.5,182.5 C 336.484,181.828 348.151,186.661 357.5,197C 359.5,197.667 361.5,198.333 363.5,199C 447.057,196.054 517.224,224.888 574,285.5C 641.597,368.763 655.597,460.43 616,560.5C 576.355,643.453 511.188,693.287 420.5,710C 399.93,713.286 379.264,714.286 358.5,713C 351.752,715.071 345.418,718.071 339.5,722C 318.276,727.638 303.109,720.471 294,700.5C 288.433,677.136 296.933,661.302 319.5,653C 339.579,650.287 353.746,658.12 362,676.5C 363.833,677.667 365.667,678.833 367.5,680C 378.573,680.931 389.573,680.597 400.5,679C 404.683,676.827 406.849,673.327 407,668.5C 407.667,656.167 407.667,643.833 407,631.5C 406.27,627.104 403.77,624.27 399.5,623C 396.167,622.667 392.833,622.333 389.5,622C 334.833,621.333 280.167,621.333 225.5,622C 222.823,622.249 220.49,623.249 218.5,625C 209.131,638.014 196.465,643.347 180.5,641C 159.677,634.489 150.51,620.323 153,598.5C 159.145,578.513 172.645,569.013 193.5,570C 204.635,572.738 213.635,578.738 220.5,588C 221.5,588.333 222.5,588.667 223.5,589C 283.504,589.489 343.504,589.822 403.5,590C 461.929,581.891 500.762,550.058 520,494.5C 532.346,446.876 523.346,403.876 493,365.5C 461.852,332.772 423.519,317.439 378,319.5C 361.15,319.782 344.317,320.448 327.5,321.5C 326.872,324.78 326.539,328.113 326.5,331.5C 327.083,342.496 327.583,353.496 328,364.5C 328.833,365.333 329.667,366.167 330.5,367C 351.411,368.311 372.411,368.978 393.5,369C 420.89,370.449 444.056,380.949 463,400.5C 488.436,435.632 490.102,471.965 468,509.5C 451.341,533.088 428.508,546.255 399.5,549C 369.5,549.333 339.5,549.667 309.5,550C 304.322,553.422 299.322,557.089 294.5,561C 276.403,569.688 260.569,566.521 247,551.5C 237.551,534.986 238.884,519.319 251,504.5C 266.446,490.756 282.613,489.922 299.5,502C 302.5,505.667 305.5,509.333 308.5,513C 310.275,514.439 312.275,515.439 314.5,516C 343.494,517.87 372.494,517.87 401.5,516C 426.801,511.7 442.967,497.2 450,472.5C 453.757,448.771 446.923,428.604 429.5,412C 420.348,405.058 410.014,401.058 398.5,400C 365.981,399.184 333.481,399.351 301,400.5C 299.373,400.375 297.873,399.875 296.5,399C 295.672,374.239 295.172,349.406 295,324.5C 294.5,324 294,323.5 293.5,323C 281.943,320.006 270.276,319.673 258.5,322C 251.226,323.612 245.226,327.279 240.5,333C 217.433,346.193 199.267,341.359 186,318.5C 179.243,293.509 188.076,277.009 212.5,269C 227.756,267.459 240.09,272.792 249.5,285C 251.5,286 253.5,287 255.5,288C 305.25,288.99 354.916,288.657 404.5,287C 405.333,286.167 406.167,285.333 407,284.5C 407.237,270.485 407.737,256.485 408.5,242.5C 408.823,237.606 406.823,234.106 402.5,232C 390.833,231.333 379.167,231.333 367.5,232C 364.166,233.331 361.166,235.165 358.5,237.5C 344.691,256.019 327.691,259.519 307.5,248C 290.955,232.896 288.455,215.73 300,196.5C 306.08,189.385 313.58,184.719 322.5,182.5 Z"/></g>
<g><path style="opacity:1" fill="#e3147d" d="M 323.5,202.5 C 338.315,201.814 345.148,208.814 344,223.5C 336.362,237.273 326.696,238.939 315,228.5C 309.11,217.003 311.943,208.336 323.5,202.5 Z"/></g>
<g><path style="opacity:0.982" fill="#fefffe" d="M 2486.5,225.5 C 2505.17,225.5 2523.83,225.5 2542.5,225.5C 2542.5,313.167 2542.5,400.833 2542.5,488.5C 2523.83,488.5 2505.17,488.5 2486.5,488.5C 2486.5,400.833 2486.5,313.167 2486.5,225.5 Z"/></g>
<g><path style="opacity:0.983" fill="#fefffe" d="M 1722.5,236.5 C 1770.29,232.503 1810.46,247.836 1843,282.5C 1870.58,318.049 1878.58,357.716 1867,401.5C 1849.44,452.549 1813.94,482.382 1760.5,491C 1723.74,496.486 1689.41,489.82 1657.5,471C 1655.61,469.922 1654.61,468.255 1654.5,466C 1656.74,441.145 1646.74,423.145 1624.5,412C 1619.02,409.872 1613.36,408.705 1607.5,408.5C 1595.09,367.59 1599.93,328.924 1622,292.5C 1647.04,258.889 1680.54,240.223 1722.5,236.5 Z M 1724.5,286.5 C 1763.93,282.788 1791.77,298.788 1808,334.5C 1818.83,367.703 1812.67,397.203 1789.5,423C 1764.22,443.655 1736.22,448.322 1705.5,437C 1675.47,422.412 1660.13,398.245 1659.5,364.5C 1661.73,321.96 1683.4,295.96 1724.5,286.5 Z"/></g>
<g><path style="opacity:0.979" fill="#fefffe" d="M 940.5,240.5 C 982.168,240.333 1023.83,240.5 1065.5,241C 1109.62,242.47 1144.78,260.637 1171,295.5C 1190.64,329.472 1195.3,365.472 1185,403.5C 1174.45,436.722 1153.28,460.556 1121.5,475C 1104.27,482.475 1086.27,486.809 1067.5,488C 1025.17,488.5 982.835,488.667 940.5,488.5C 940.5,405.833 940.5,323.167 940.5,240.5 Z M 999.5,288.5 C 1019.84,288.333 1040.17,288.5 1060.5,289C 1105.66,293.989 1129.32,319.156 1131.5,364.5C 1129.58,408.918 1106.58,434.085 1062.5,440C 1041.5,440.5 1020.5,440.667 999.5,440.5C 999.5,389.833 999.5,339.167 999.5,288.5 Z"/></g>
<g><path style="opacity:1" fill="#e2067b" d="M 442.5,240.5 C 499.829,256.562 543.996,289.895 575,340.5C 616.145,415.882 616.811,491.549 577,567.5C 546.497,619.496 502.33,654.163 444.5,671.5C 442.076,671.852 440.576,670.852 440,668.5C 439.708,655.823 439.208,643.157 438.5,630.5C 439.068,622.218 443.068,616.051 450.5,612C 520.498,581.941 556.498,528.608 558.5,452C 556.396,406.664 539.73,367.664 508.5,335C 490.226,318.02 469.226,305.354 445.5,297C 444,295.5 442.5,294 441,292.5C 439.364,276.259 439.03,259.925 440,243.5C 441.045,242.627 441.878,241.627 442.5,240.5 Z"/></g>
<g><path style="opacity:0.981" fill="#fefffe" d="M 1465.5,255.5 C 1484.17,255.5 1502.83,255.5 1521.5,255.5C 1521.5,271.167 1521.5,286.833 1521.5,302.5C 1537.5,302.5 1553.5,302.5 1569.5,302.5C 1569.5,316.833 1569.5,331.167 1569.5,345.5C 1553.5,345.5 1537.5,345.5 1521.5,345.5C 1521.33,371.835 1521.5,398.169 1522,424.5C 1523.57,438.573 1531.41,445.906 1545.5,446.5C 1549.18,446.221 1552.85,445.888 1556.5,445.5C 1553.1,460.466 1555.77,474.3 1564.5,487C 1540.1,494.327 1516.43,492.327 1493.5,481C 1478.18,470.984 1469.34,456.817 1467,438.5C 1465.58,407.525 1465.08,376.525 1465.5,345.5C 1455.83,345.5 1446.17,345.5 1436.5,345.5C 1436.5,331.167 1436.5,316.833 1436.5,302.5C 1446.17,302.5 1455.83,302.5 1465.5,302.5C 1465.5,286.833 1465.5,271.167 1465.5,255.5 Z"/></g>
<g><path style="opacity:1" fill="#e2117d" d="M 214.5,288.5 C 228.855,287.69 235.689,294.357 235,308.5C 229.71,320.57 221.21,323.736 209.5,318C 199.136,306.016 200.803,296.183 214.5,288.5 Z"/></g>
<g><path style="opacity:0.981" fill="#fefffe" d="M 1316.5,294.5 C 1353.1,293.847 1382.93,307.513 1406,335.5C 1425.01,365.306 1428.68,396.973 1417,430.5C 1403,462.438 1378.83,481.938 1344.5,489C 1307.92,496.089 1274.92,488.422 1245.5,466C 1219.03,440.262 1209.2,409.095 1216,372.5C 1226.61,330.751 1253.11,305.584 1295.5,297C 1302.64,296.098 1309.64,295.265 1316.5,294.5 Z M 1309.5,341.5 C 1337.93,338.464 1356.43,350.464 1365,377.5C 1368.75,394.427 1366.42,410.427 1358,425.5C 1344,442.721 1326.17,448.555 1304.5,443C 1286.36,436.899 1275.52,424.399 1272,405.5C 1267.8,383.429 1273.97,364.929 1290.5,350C 1296.45,346.081 1302.79,343.248 1309.5,341.5 Z"/></g>
<g><path style="opacity:0.984" fill="#fefffe" d="M 2025.5,294.5 C 2026.5,294.5 2027.5,294.5 2028.5,294.5C 2028.5,311.833 2028.5,329.167 2028.5,346.5C 2011.34,343.83 1995.67,347.33 1981.5,357C 1973.37,364.761 1968.54,374.261 1967,385.5C 1966.5,419.832 1966.33,454.165 1966.5,488.5C 1947.83,488.5 1929.17,488.5 1910.5,488.5C 1910.5,424.833 1910.5,361.167 1910.5,297.5C 1928.17,297.5 1945.83,297.5 1963.5,297.5C 1963.33,305.174 1963.5,312.841 1964,320.5C 1980.76,302.971 2001.26,294.304 2025.5,294.5 Z"/></g>
<g><path style="opacity:0.98" fill="#fefffe" d="M 2133.5,294.5 C 2154.19,294.004 2173.86,298.171 2192.5,307C 2215.3,321.421 2227.14,342.255 2228,369.5C 2228.5,409.165 2228.67,448.832 2228.5,488.5C 2210.83,488.5 2193.17,488.5 2175.5,488.5C 2175.67,481.492 2175.5,474.492 2175,467.5C 2165.64,480.769 2152.81,488.269 2136.5,490C 2110.66,494.7 2087,489.7 2065.5,475C 2050.5,460.655 2044.66,443.155 2048,422.5C 2053.53,399.301 2068.03,385.135 2091.5,380C 2097.44,378.613 2103.44,377.613 2109.5,377C 2130.5,376.5 2151.5,376.333 2172.5,376.5C 2171.93,357.17 2162.26,345.336 2143.5,341C 2118.24,337.233 2095.24,342.733 2074.5,357.5C 2068,345.167 2061.5,332.833 2055,320.5C 2054.33,319.5 2054.33,318.5 2055,317.5C 2071.58,306.636 2089.74,299.802 2109.5,297C 2117.65,296.163 2125.65,295.33 2133.5,294.5 Z M 2123.5,409.5 C 2139.83,409.5 2156.17,409.5 2172.5,409.5C 2175.47,428.731 2168.14,442.231 2150.5,450C 2136.34,455.283 2122.67,454.283 2109.5,447C 2098.84,436.314 2098.84,425.647 2109.5,415C 2114.02,412.445 2118.68,410.612 2123.5,409.5 Z"/></g>
<g><path style="opacity:0.979" fill="#fefffe" d="M 2368.5,294.5 C 2392.69,293.878 2414.69,300.378 2434.5,314C 2444.27,321.889 2451.6,331.556 2456.5,343C 2456.36,343.772 2456.02,344.439 2455.5,345C 2441.43,352.119 2427.59,359.619 2414,367.5C 2398.92,343.359 2377.75,335.859 2350.5,345C 2332.9,353.696 2323.4,367.863 2322,387.5C 2319.55,414.465 2330.72,432.965 2355.5,443C 2380.68,449.153 2400.18,441.32 2414,419.5C 2427.95,426.615 2441.78,433.949 2455.5,441.5C 2455.83,442.167 2456.17,442.833 2456.5,443.5C 2445.02,467.109 2426.35,481.942 2400.5,488C 2370.65,494.609 2341.98,491.276 2314.5,478C 2275.01,453.832 2259.18,418.665 2267,372.5C 2277.95,330.554 2304.78,305.387 2347.5,297C 2354.65,296.163 2361.65,295.33 2368.5,294.5 Z"/></g>
<g><path style="opacity:0.979" fill="#fefffe" d="M 2778.5,377.5 C 2778.5,387.833 2778.5,398.167 2778.5,408.5C 2730.57,409.328 2682.57,409.828 2634.5,410C 2639.4,426.571 2650.07,437.571 2666.5,443C 2692.65,450.573 2715.82,445.406 2736,427.5C 2745.67,437.833 2755.33,448.167 2765,458.5C 2765.67,459.5 2765.67,460.5 2765,461.5C 2749.29,477.77 2730.13,487.27 2707.5,490C 2670.26,495.691 2636.92,487.024 2607.5,464C 2582.48,438.449 2573.31,407.949 2580,372.5C 2590.01,331.153 2615.85,305.986 2657.5,297C 2691.24,290.686 2721.57,298.019 2748.5,319C 2765.28,335.057 2775.28,354.557 2778.5,377.5 Z M 2673.5,337.5 C 2701.58,336.191 2719.25,349.024 2726.5,376C 2695.5,376.667 2664.5,376.667 2633.5,376C 2638.58,354.422 2651.91,341.589 2673.5,337.5 Z"/></g>
<g><path style="opacity:1" fill="#e10079" d="M 1602.5,423.5 C 1630.17,426.006 1642.01,441.006 1638,468.5C 1629.8,488.019 1615.3,495.519 1594.5,491C 1579.22,485.372 1571.22,474.372 1570.5,458C 1572.45,438.224 1583.12,426.724 1602.5,423.5 Z"/></g>
<g><path style="opacity:1" fill="#e2127d" d="M 271.5,514.5 C 285.825,513.001 292.992,519.334 293,533.5C 286.627,547.038 277.293,549.704 265,541.5C 259.969,534.915 259.302,527.915 263,520.5C 265.322,517.605 268.155,515.605 271.5,514.5 Z"/></g>
<g><path style="opacity:0.932" fill="#fefffe" d="M 1780.5,572.5 C 1784.17,572.5 1787.83,572.5 1791.5,572.5C 1791.5,607.833 1791.5,643.167 1791.5,678.5C 1787.83,678.5 1784.17,678.5 1780.5,678.5C 1780.5,643.167 1780.5,607.833 1780.5,572.5 Z"/></g>
<g><path style="opacity:0.926" fill="#fefffe" d="M 2469.5,572.5 C 2473.17,572.5 2476.83,572.5 2480.5,572.5C 2480.33,595.836 2480.5,619.169 2481,642.5C 2495.5,629.333 2510,616.167 2524.5,603C 2529.2,602.172 2533.87,602.338 2538.5,603.5C 2527.98,613.849 2517.32,624.016 2506.5,634C 2517.93,648.849 2529.59,663.516 2541.5,678C 2536.47,678.829 2531.47,678.662 2526.5,677.5C 2516.81,665.644 2507.31,653.644 2498,641.5C 2492.33,646.833 2486.67,652.167 2481,657.5C 2480.5,664.492 2480.33,671.492 2480.5,678.5C 2476.83,678.5 2473.17,678.5 2469.5,678.5C 2469.5,643.167 2469.5,607.833 2469.5,572.5 Z"/></g>
<g><path style="opacity:0.918" fill="#fefffe" d="M 1477.5,577.5 C 1501.36,574.19 1520.19,582.19 1534,601.5C 1542.67,619.5 1542.67,637.5 1534,655.5C 1520.2,674.971 1501.37,682.805 1477.5,679C 1445.91,670.679 1432.07,650.179 1436,617.5C 1441.54,595.459 1455.37,582.125 1477.5,577.5 Z M 1482.5,587.5 C 1508.15,586.669 1523.65,598.669 1529,623.5C 1529.83,648.655 1518,663.822 1493.5,669C 1461.47,669.303 1445.97,653.47 1447,621.5C 1451.25,602.082 1463.08,590.749 1482.5,587.5 Z"/></g>
<g><path style="opacity:0.915" fill="#fefffe" d="M 1178.5,578.5 C 1196.17,578.333 1213.84,578.5 1231.5,579C 1258.73,584.288 1272.73,600.788 1273.5,628.5C 1272.73,656.212 1258.73,672.712 1231.5,678C 1213.84,678.5 1196.17,678.667 1178.5,678.5C 1178.5,645.167 1178.5,611.833 1178.5,578.5 Z M 1190.5,588.5 C 1203.17,588.333 1215.84,588.5 1228.5,589C 1255.34,595.82 1266.18,612.987 1261,640.5C 1255.37,655.794 1244.54,664.961 1228.5,668C 1215.84,668.5 1203.17,668.667 1190.5,668.5C 1190.5,641.833 1190.5,615.167 1190.5,588.5 Z"/></g>
<g><path style="opacity:0.905" fill="#fefffe" d="M 1944.5,578.5 C 1948.23,578.177 1951.89,578.511 1955.5,579.5C 1976,605.167 1996.5,630.833 2017,656.5C 2017.5,630.502 2017.67,604.502 2017.5,578.5C 2021.5,578.5 2025.5,578.5 2029.5,578.5C 2029.5,611.833 2029.5,645.167 2029.5,678.5C 2025.56,678.793 2021.73,678.46 2018,677.5C 1997.91,651.651 1977.57,625.985 1957,600.5C 1956.5,626.498 1956.33,652.498 1956.5,678.5C 1952.5,678.5 1948.5,678.5 1944.5,678.5C 1944.5,645.167 1944.5,611.833 1944.5,578.5 Z"/></g>
<g><path style="opacity:0.909" fill="#fefffe" d="M 1385.5,586.5 C 1389.17,586.5 1392.83,586.5 1396.5,586.5C 1396.5,591.833 1396.5,597.167 1396.5,602.5C 1404.17,602.5 1411.83,602.5 1419.5,602.5C 1419.5,605.833 1419.5,609.167 1419.5,612.5C 1411.83,612.5 1404.17,612.5 1396.5,612.5C 1396.06,629.556 1396.56,646.556 1398,663.5C 1399.25,666.381 1401.42,668.214 1404.5,669C 1410,670.101 1415.16,669.268 1420,666.5C 1426.27,671.439 1425.77,675.272 1418.5,678C 1409.89,680.44 1401.56,679.774 1393.5,676C 1389.05,672.603 1386.55,668.103 1386,662.5C 1385.5,645.837 1385.33,629.17 1385.5,612.5C 1381.17,612.5 1376.83,612.5 1372.5,612.5C 1372.5,609.167 1372.5,605.833 1372.5,602.5C 1376.83,602.5 1381.17,602.5 1385.5,602.5C 1385.5,597.167 1385.5,591.833 1385.5,586.5 Z"/></g>
<g><path style="opacity:0.906" fill="#fefffe" d="M 2146.5,586.5 C 2150.17,586.5 2153.83,586.5 2157.5,586.5C 2157.5,591.833 2157.5,597.167 2157.5,602.5C 2165.17,602.5 2172.83,602.5 2180.5,602.5C 2180.5,605.833 2180.5,609.167 2180.5,612.5C 2172.83,612.5 2165.17,612.5 2157.5,612.5C 2157.33,628.837 2157.5,645.17 2158,661.5C 2161.47,669.095 2167.31,671.595 2175.5,669C 2177.65,667.589 2179.98,666.755 2182.5,666.5C 2182.8,669.265 2183.8,671.765 2185.5,674C 2178.32,679.144 2170.32,680.81 2161.5,679C 2154,676.833 2149.17,672 2147,664.5C 2146.5,647.17 2146.33,629.837 2146.5,612.5C 2141.83,612.5 2137.17,612.5 2132.5,612.5C 2132.5,609.167 2132.5,605.833 2132.5,602.5C 2137.17,602.5 2141.83,602.5 2146.5,602.5C 2146.5,597.167 2146.5,591.833 2146.5,586.5 Z"/></g>
<g><path style="opacity:1" fill="#e20f7c" d="M 183.5,589.5 C 200.82,589.451 206.986,597.785 202,614.5C 193.305,624.699 184.305,625.032 175,615.5C 169.373,603.807 172.207,595.14 183.5,589.5 Z"/></g>
<g><path style="opacity:0.911" fill="#fefffe" d="M 1317.5,602.5 C 1348.3,600.473 1363.8,614.806 1364,645.5C 1358.94,670.861 1343.44,682.028 1317.5,679C 1293.26,671.705 1283.43,655.538 1288,630.5C 1292.26,615.147 1302.1,605.814 1317.5,602.5 Z M 1318.5,612.5 C 1345.59,612.438 1356.43,625.772 1351,652.5C 1342.84,668.321 1330.34,673.154 1313.5,667C 1303.47,661.104 1298.47,652.271 1298.5,640.5C 1298.81,626.529 1305.47,617.195 1318.5,612.5 Z"/></g>
<g><path style="opacity:0.924" fill="#fefffe" d="M 1561.5,602.5 C 1565.17,602.5 1568.83,602.5 1572.5,602.5C 1572.33,606.514 1572.5,610.514 1573,614.5C 1579.87,605.485 1589.04,601.485 1600.5,602.5C 1600.5,606.167 1600.5,609.833 1600.5,613.5C 1585.52,612.236 1576.35,618.902 1573,633.5C 1572.5,648.496 1572.33,663.496 1572.5,678.5C 1568.83,678.5 1565.17,678.5 1561.5,678.5C 1561.5,653.167 1561.5,627.833 1561.5,602.5 Z"/></g>
<g><path style="opacity:0.913" fill="#fefffe" d="M 1634.5,602.5 C 1645.44,601.176 1655.78,603.01 1665.5,608C 1669.99,611.834 1672.83,616.667 1674,622.5C 1674.5,641.164 1674.67,659.83 1674.5,678.5C 1671.17,678.5 1667.83,678.5 1664.5,678.5C 1664.66,675.482 1664.5,672.482 1664,669.5C 1653.2,679.322 1640.7,682.156 1626.5,678C 1611.59,671.346 1607.43,660.513 1614,645.5C 1618.72,639.556 1624.89,636.389 1632.5,636C 1642.83,635.5 1653.16,635.334 1663.5,635.5C 1665.17,624.321 1660.84,616.821 1650.5,613C 1638.32,610.919 1627.49,613.752 1618,621.5C 1616.29,618.582 1614.46,615.748 1612.5,613C 1619.01,607.578 1626.34,604.078 1634.5,602.5 Z M 1632.5,644.5 C 1642.83,644.5 1653.17,644.5 1663.5,644.5C 1665.11,661.232 1657.44,669.899 1640.5,670.5C 1630.33,671.132 1623.99,666.632 1621.5,657C 1622.57,650.436 1626.24,646.27 1632.5,644.5 Z"/></g>
<g><path style="opacity:0.906" fill="#fefffe" d="M 1724.5,602.5 C 1736.52,600.757 1747.52,603.257 1757.5,610C 1759.62,612.409 1761.62,614.909 1763.5,617.5C 1760.75,619.623 1757.92,621.623 1755,623.5C 1743.4,611.014 1730.23,609.181 1715.5,618C 1706.02,627.416 1703.19,638.583 1707,651.5C 1713.14,664.992 1723.64,670.826 1738.5,669C 1745.43,667.535 1751.1,664.035 1755.5,658.5C 1758.3,660.138 1760.97,661.971 1763.5,664C 1756.49,674.673 1746.49,679.839 1733.5,679.5C 1715.19,679.767 1702.69,671.434 1696,654.5C 1689.66,628.166 1699.16,610.833 1724.5,602.5 Z"/></g>
<g><path style="opacity:0.904" fill="#fefffe" d="M 1840.5,602.5 C 1870.35,600.689 1885.35,614.689 1885.5,644.5C 1864.49,644.167 1843.49,644.5 1822.5,645.5C 1827.41,663.294 1839.08,671.128 1857.5,669C 1864.39,667.892 1870.06,664.725 1874.5,659.5C 1876.85,661.705 1878.85,664.205 1880.5,667C 1875.23,673.809 1868.23,677.809 1859.5,679C 1824.33,680.835 1808.83,664.335 1813,629.5C 1817.45,615.553 1826.61,606.553 1840.5,602.5 Z M 1841.5,612.5 C 1859.72,610.09 1870.72,617.756 1874.5,635.5C 1857.16,635.667 1839.83,635.5 1822.5,635C 1825.01,624.087 1831.34,616.587 1841.5,612.5 Z"/></g>
<g><path style="opacity:0.909" fill="#fefffe" d="M 2080.5,602.5 C 2109.82,601.156 2124.49,615.156 2124.5,644.5C 2103.83,644.5 2083.17,644.5 2062.5,644.5C 2064.92,660.749 2074.42,669.082 2091,669.5C 2100.11,669.447 2107.77,666.113 2114,659.5C 2116.54,661.705 2118.71,664.205 2120.5,667C 2110.07,677.762 2097.4,681.762 2082.5,679C 2062.46,674.286 2051.79,661.62 2050.5,641C 2051.33,620.773 2061.33,607.94 2080.5,602.5 Z M 2080.5,612.5 C 2098.65,609.835 2109.99,617.335 2114.5,635C 2097.17,635.5 2079.84,635.667 2062.5,635.5C 2064.07,624.278 2070.07,616.611 2080.5,612.5 Z"/></g>
<g><path style="opacity:0.902" fill="#fefffe" d="M 2188.5,602.5 C 2192.11,602.211 2195.61,602.544 2199,603.5C 2206.41,623.973 2214.07,644.306 2222,664.5C 2229.83,644.167 2237.67,623.833 2245.5,603.5C 2248.77,602.513 2252.1,602.18 2255.5,602.5C 2262.65,623.437 2270.48,644.104 2279,664.5C 2286.8,643.91 2294.3,623.243 2301.5,602.5C 2305.23,602.177 2308.89,602.511 2312.5,603.5C 2302.76,628.381 2293.43,653.381 2284.5,678.5C 2280.5,678.5 2276.5,678.5 2272.5,678.5C 2265.3,658.422 2257.8,638.422 2250,618.5C 2242.6,638.206 2235.1,657.872 2227.5,677.5C 2223.88,678.659 2220.21,678.825 2216.5,678C 2206.45,653.074 2197.12,627.907 2188.5,602.5 Z"/></g>
<g><path style="opacity:0.913" fill="#fefffe" d="M 2347.5,602.5 C 2380.98,601.147 2396.15,617.147 2393,650.5C 2385.89,672.487 2370.73,681.987 2347.5,679C 2325.31,673.114 2315.14,658.614 2317,635.5C 2319.78,617.553 2329.95,606.553 2347.5,602.5 Z M 2348.5,612.5 C 2372.77,611.602 2383.94,623.269 2382,647.5C 2377.3,663.852 2366.47,671.019 2349.5,669C 2335.72,664.793 2328.39,655.459 2327.5,641C 2328.23,626.783 2335.23,617.283 2348.5,612.5 Z"/></g>
<g><path style="opacity:0.92" fill="#fefffe" d="M 2413.5,602.5 C 2417.17,602.5 2420.83,602.5 2424.5,602.5C 2424.33,606.514 2424.5,610.514 2425,614.5C 2431.89,605.581 2441.06,601.581 2452.5,602.5C 2452.5,606.167 2452.5,609.833 2452.5,613.5C 2435.9,612.264 2426.74,619.931 2425,636.5C 2424.5,650.496 2424.33,664.496 2424.5,678.5C 2420.83,678.5 2417.17,678.5 2413.5,678.5C 2413.5,653.167 2413.5,627.833 2413.5,602.5 Z"/></g>
<g><path style="opacity:1" fill="#e2127d" d="M 324.5,671.5 C 341.387,672.94 346.887,681.606 341,697.5C 332,706.833 323,706.833 314,697.5C 308.969,685.243 312.469,676.577 324.5,671.5 Z"/></g>
</svg>
